<svg width="412" height="413" viewBox="0 0 412 413" fill="none" xmlns="http://www.w3.org/2000/svg">
<rect width="412" height="413" fill="#383B49"/>
<path d="M135.917 117.029V320.51" stroke="#CBD77E" stroke-width="37"/>
<path d="M84 320.068C84 292.822 108.814 242.663 193.993 219.865C300.466 191.367 324.224 90.0433 273.188 88.0198C206.752 85.3858 187.393 346 266.588 346" stroke="#CBD77E" stroke-width="37"/>
<g filter="url(#filter0_d_123_3406)">
<path d="M84 320.068C84 292.822 108.814 242.663 193.993 219.865C201.565 217.839 208.718 215.444 215.456 212.742M215.456 212.742C219.248 149.041 240.53 86.7251 273.188 88.0198C320.595 89.8994 303.467 177.458 215.456 212.742Z" stroke="#CBD77E" stroke-width="37" shape-rendering="crispEdges"/>
</g>
<path d="M328.83 123V117.682L341.256 106.176C342.313 105.153 343.199 104.233 343.915 103.415C344.642 102.597 345.193 101.795 345.568 101.011C345.943 100.216 346.131 99.358 346.131 98.4375C346.131 97.4148 345.898 96.5341 345.432 95.7955C344.966 95.0455 344.33 94.4716 343.523 94.0739C342.716 93.6648 341.801 93.4602 340.778 93.4602C339.71 93.4602 338.778 93.6761 337.983 94.108C337.188 94.5398 336.574 95.1591 336.142 95.9659C335.71 96.7727 335.494 97.733 335.494 98.8466H328.489C328.489 96.5625 329.006 94.5795 330.04 92.8977C331.074 91.2159 332.523 89.9148 334.386 88.9943C336.25 88.0739 338.398 87.6136 340.83 87.6136C343.33 87.6136 345.506 88.0568 347.358 88.9432C349.222 89.8182 350.67 91.0341 351.705 92.5909C352.739 94.1477 353.256 95.9318 353.256 97.9432C353.256 99.2614 352.994 100.562 352.472 101.847C351.96 103.131 351.045 104.557 349.727 106.125C348.409 107.682 346.551 109.551 344.153 111.733L339.057 116.727V116.966H353.716V123H328.83Z" fill="#CBD77E"/>
<defs>
<filter id="filter0_d_123_3406" x="65.5" y="61.4994" width="268.002" height="266.568" filterUnits="userSpaceOnUse" color-interpolation-filters="sRGB">
<feFlood flood-opacity="0" result="BackgroundImageFix"/>
<feColorMatrix in="SourceAlpha" type="matrix" values="0 0 0 0 0 0 0 0 0 0 0 0 0 0 0 0 0 0 127 0" result="hardAlpha"/>
<feOffset dx="8"/>
<feGaussianBlur stdDeviation="4"/>
<feComposite in2="hardAlpha" operator="out"/>
<feColorMatrix type="matrix" values="0 0 0 0 0.314904 0 0 0 0 0.269503 0 0 0 0 0.269503 0 0 0 0.5 0"/>
<feBlend mode="hard-light" in2="BackgroundImageFix" result="effect1_dropShadow_123_3406"/>
<feBlend mode="normal" in="SourceGraphic" in2="effect1_dropShadow_123_3406" result="shape"/>
</filter>
</defs>
</svg>
